<svg width="24" height="24" viewBox="0 0 24 24" fill="none" xmlns="http://www.w3.org/2000/svg">
<circle cx="12" cy="12" r="12" fill="url(#paint0_linear)"/>
<path fill-rule="evenodd" clip-rule="evenodd" d="M14.6409 9.12792C14.6409 9.12792 17.8638 9.11572 17.9326 9.12792C19.0719 9.32957 19.3979 10.947 18.4228 11.6006C18.7538 12.2131 18.5605 13.0109 17.9954 13.3897C18.3263 14.0022 18.1331 14.8 17.568 15.1788C18.042 16.0562 17.4122 17.1795 16.451 17.1789H9.32763V10.0224C9.32763 10.0224 11.389 8.06857 12.0525 7.39129C12.4331 7.00284 12.6789 6.48531 12.7775 5.941C12.7889 5.87814 12.796 5.81431 12.8031 5.75061C12.8201 5.59683 12.8371 5.44379 12.9143 5.30694C13.0093 5.13866 13.1686 5.01305 13.3499 4.96532C13.666 4.88205 14.0581 4.96085 14.3387 5.11776C15.2005 5.59962 15.4017 6.955 15.091 7.84267L14.6409 9.12792ZM6.41276 9.08152H8.12235C8.35735 9.08152 8.54976 9.2791 8.54976 9.52269V17.4641C8.54976 17.7075 8.35822 17.9052 8.12235 17.9052H6.41276C6.17689 17.9052 5.98535 17.7075 5.98535 17.4641V9.52269C5.98535 9.2791 6.17773 9.08152 6.41276 9.08152Z" fill="white"/>
<defs>
<linearGradient id="paint0_linear" x1="-3.57628e-07" y1="24" x2="24" y2="-3.57628e-07" gradientUnits="userSpaceOnUse">
<stop stop-color="#3E78FF"/>
<stop offset="1" stop-color="#96B6FF"/>
</linearGradient>
</defs>
</svg>
