<svg width="24" height="24" viewBox="0 0 24 24" fill="none" xmlns="http://www.w3.org/2000/svg">
<circle cx="12" cy="12" r="12" fill="url(#paint0_linear)"/>
<path fill-rule="evenodd" clip-rule="evenodd" d="M8.28485 9.99988C9.54728 9.99988 10.5707 8.97648 10.5707 7.71405C10.5707 6.45162 9.54728 5.42822 8.28485 5.42822C7.02242 5.42822 5.99902 6.45162 5.99902 7.71405C5.99902 8.97648 7.02242 9.99988 8.28485 9.99988ZM15.7138 18.5717C16.9763 18.5717 17.9997 17.5483 17.9997 16.2858C17.9997 15.0234 16.9763 14 15.7138 14C14.4514 14 13.428 15.0234 13.428 16.2858C13.428 17.5483 14.4514 18.5717 15.7138 18.5717ZM17.3793 7.98096L7.98035 17.3799C7.53402 17.8262 6.81037 17.8262 6.36403 17.3799C5.91769 16.9335 5.91769 16.2099 6.36403 15.7635L15.7629 6.36464C16.2093 5.9183 16.9329 5.9183 17.3793 6.36464C17.8256 6.81097 17.8256 7.53463 17.3793 7.98096Z" fill="white"/>
<defs>
<linearGradient id="paint0_linear" x1="-3.57628e-07" y1="24" x2="24" y2="-3.57628e-07" gradientUnits="userSpaceOnUse">
<stop stop-color="#3E78FF"/>
<stop offset="1" stop-color="#96B6FF"/>
</linearGradient>
</defs>
</svg>
