<svg width="108" height="110" viewBox="0 0 108 110" fill="none" xmlns="http://www.w3.org/2000/svg">
<g filter="url(#filter0_d)">
<path fill-rule="evenodd" clip-rule="evenodd" d="M54 90C74.9868 90 92 72.9868 92 52C92 31.0132 74.9868 12 54 12C33.0132 12 16 31.0132 16 52C16 72.9868 33.0132 90 54 90Z" fill="white"/>
</g>
<path fill-rule="evenodd" clip-rule="evenodd" d="M54 100C80.5097 100 102 78.5097 102 52C102 25.4903 80.5097 4 54 4C27.4903 4 6 25.4903 6 52C6 78.5097 27.4903 100 54 100Z" fill="white"/>
<rect x="26" y="70" width="56" height="4" rx="2" fill="url(#paint0_linear)"/>
<rect x="30" y="32" width="48" height="36" rx="4" fill="url(#paint1_linear)"/>
<path fill-rule="evenodd" clip-rule="evenodd" d="M37 37C37 38.1046 36.1046 39 35 39C33.8954 39 33 38.1046 33 37C33 35.8954 33.8954 35 35 35C36.1046 35 37 35.8954 37 37ZM43 37C43 38.1046 42.1046 39 41 39C39.8954 39 39 38.1046 39 37C39 35.8954 39.8954 35 41 35C42.1046 35 43 35.8954 43 37ZM47 39C48.1046 39 49 38.1046 49 37C49 35.8954 48.1046 35 47 35C45.8954 35 45 35.8954 45 37C45 38.1046 45.8954 39 47 39Z" fill="white"/>
<rect x="33" y="41" width="42" height="24" rx="2" fill="url(#paint2_linear)"/>
<path d="M48 52L52 56L59 49" stroke="white" stroke-width="4" stroke-linecap="round" stroke-linejoin="round"/>
<defs>
<filter id="filter0_d" x="0" y="0" width="108" height="110" filterUnits="userSpaceOnUse" color-interpolation-filters="sRGB">
<feFlood flood-opacity="0" result="BackgroundImageFix"/>
<feColorMatrix in="SourceAlpha" type="matrix" values="0 0 0 0 0 0 0 0 0 0 0 0 0 0 0 0 0 0 127 0"/>
<feOffset dy="4"/>
<feGaussianBlur stdDeviation="8"/>
<feColorMatrix type="matrix" values="0 0 0 0 0.243137 0 0 0 0 0.470588 0 0 0 0 1 0 0 0 1 0"/>
<feBlend mode="normal" in2="BackgroundImageFix" result="effect1_dropShadow"/>
<feBlend mode="normal" in="SourceGraphic" in2="effect1_dropShadow" result="shape"/>
</filter>
<linearGradient id="paint0_linear" x1="26" y1="74" x2="26.5685" y2="66.0406" gradientUnits="userSpaceOnUse">
<stop stop-color="#3E78FF"/>
<stop offset="1" stop-color="#96B6FF"/>
</linearGradient>
<linearGradient id="paint1_linear" x1="30" y1="68" x2="64.56" y2="21.92" gradientUnits="userSpaceOnUse">
<stop stop-color="#3E78FF"/>
<stop offset="1" stop-color="#96B6FF"/>
</linearGradient>
<linearGradient id="paint2_linear" x1="54" y1="41" x2="54" y2="65" gradientUnits="userSpaceOnUse">
<stop stop-color="white" stop-opacity="0.8"/>
<stop offset="1" stop-color="white" stop-opacity="0.48"/>
</linearGradient>
</defs>
</svg>
